<?xml version="1.0" encoding="UTF-8"?>
<svg id="Layer_1" data-name="Layer 1" xmlns="http://www.w3.org/2000/svg" viewBox="0 0 800 600">
  <defs>
    <style>
      .cls-1 {
        fill: #acae62;
      }

      .cls-2 {
        fill: #d24a0d;
      }

      .cls-3 {
        fill: #754c24;
      }
    </style>
  </defs>
  <path class="cls-3" d="M215.22,291.19c-15.44-16.26-25.62-35.41-32.76-56.51,7.16,7.29,15.21,13.02,24.48,14.43,7.16,1.09,14.21.25,20.29,5.6,2,1.76,3.76-.48,3.85-3.21.4-12.44,8.05-8.98,14.57-6.16,6.62,2.86,12.97,6.44,19.19,10.13,5.4,3.21,8.18,2.31,9.08-4.11,1.34-9.51,5.19-7.3,9.43-1.77,10.45,13.64,24.96,22.24,39.08,31.24,3.25,2.07,7.21,3.89,11.53,2.64.82-12-7.66-20.27-14.04-28.07-8.61-10.52-16.44-21.61-21.42-33.67-5.44-13.18-10.37-27.29-9.39-43.24,8.15,14.29,23.16,14.23,35.77,18.67,10.81,3.81,13.53.89,10.81-10.12-1.69-6.85-3.96-12.76-.38-20.71,2.48-5.49-1.54-14.03-3-21.13-1.07-5.2-1.88-11.81,1.3-14.67,2.91-2.61,9.11.49,12.87,3.65,2.97,2.49,6.69,2.88,9.37,1.6,3.55-1.7.07-5.14-.03-7.81-.14-3.6-1.6-7.19-1.46-10.74.14-3.44,1.31-9.49,4.62-8.62,12.06,3.17,8.81-5.7,9.26-10.94.63-7.38,1.52-14.69,3.91-21.65.87-2.54,1.14-6.48,4.59-7.06,4.01-.68,5.89,3.31,7.08,5.84,3.51,7.47,7.52,14.8,8.45,23.34.56,5.18-.59,13.7,9.72,7.93,3.38-1.89,4.54,1.46,5.05,3.91.95,4.61,1.49,9.31,2.13,13.98.39,2.79-2.09,6.98,1.22,8.06,3.16,1.03,6.89-.82,9.85-3.42,2.91-2.56,5.38-6.8,10.32-5.22,6.01,1.92,2.47,7.76,4.26,11.53.99,2.09-.04,5.1-.06,7.69-.05,8.2-3.08,16.21,3.42,24.35,2.77,3.47.11,11.44-.42,17.33-.41,4.57.41,7.39,5.87,6.22,8.4-1.8,31.96-16.94,38.12-24.59,3.02,1.26,2.8,4.96,2.58,6.46-2.45,16.62-3.01,32.9-9.34,49.72-6,15.98-20.29,28.64-19.91,46.99.04,2.1-1.36,4.72,1,6.15,2.57,1.56,3.91-1.19,5.46-2.45,13.48-10.89,27.32-21.79,35.94-37.03,6.04-10.68,9.05-8.01,12.97.64.61,1.35,1.25,2.68,2.27,4.86,7.31-8.98,17.74-13.3,26.62-19.81,3.95-2.9,10.57-5.67,11.28,4.21.33,4.64,2.33,7.81,6.87,3.29,4.81-4.79,10.16-6.55,16.94-7.53,6.86-1,11.6-7.08,15.12-13.49.94-1.72,2.94-4.86,6.2-2.47,2.23,1.63,1.5,3.39.74,5.75-1.89,5.82-2.44,11.97-6.24,17.25-6.88,9.54-3.72,23.84-16.07,31.49-4.69,2.91,2.05,5.5,4.9,6.54,6.83,2.5,7.38,4.61,2.16,10.44-7.84,8.77-16.43,16.64-25.32,24.3,5.59,5.51,12.88,5.37,19.54,7.13-3.3,11.86-12.42,17.02-22.12,19.44-13.61,3.4-24.55,12.43-37.84,16-6.98,1.88-4.57,3.85-.73,6.55,6.8,4.79,13.35,9.98,20.37,14.43,7.71,4.89,3.48,7.92-1.38,10.54-2.47,1.33-5.57,1.73-8.43,2.03-11.98,1.25-23.33,7.29-35.85,4.52-3.38-.75-6.06-1.38-6.51,4.49-.28,3.63-6.67,3.03-10.59,3.66-12.44,2-24.68-.89-37-1.52-6.06-.31-11.69.65-17.31,2.19-5.06,1.39-7.71,4.16-8.44,10.42-4.23,36.44-2.06,72.65,3.37,108.68,1.18,7.85-1.42,9.91-7.66,11.13-9.12,1.78-6.3-6.28-6.44-9.39-1.23-27.07-1.67-54.17-2.41-81.26-.28-10.25-1.34-20.53,2.32-30.51,1.04-2.85-.23-3.79-3.42-4.93-12.45-4.46-24.55-1.93-36.74.48-5.72,1.13-11.32,3.17-17.08,3.71-7.25.68-16.29,9.31-21.22-4.63-.84-2.38-7.96,2.2-12.23,1.8-14.93-1.38-30.73,4.06-45.9-5.4,10.57-8.3,16.5-19.61,27.52-26.69-23.29-11.22-51.28-7.19-70.48-25.92,1.08-2.31,1.23-3.31,1.67-3.45,5.46-1.82,13.58-1.88,14.38-8.17.75-5.88-8.11-5.83-11.69-9.52-3.61-3.71-8.4-5.65-11.86-9.74-8.37-9.88-8.62-9.9,3.46-16.1Z"/>
  <path class="cls-2" d="M235.53,285.85c-15.44-16.26-25.62-35.41-32.76-56.51,7.16,7.29,15.21,13.02,24.48,14.43,7.16,1.09,14.21.25,20.29,5.6,2,1.76,3.76-.48,3.85-3.21.4-12.44,8.05-8.98,14.57-6.16,6.62,2.86,12.97,6.44,19.19,10.13,5.4,3.21,8.18,2.31,9.08-4.11,1.34-9.51,5.19-7.3,9.43-1.77,10.45,13.64,24.96,22.24,39.08,31.24,3.25,2.07,7.21,3.89,11.53,2.64.82-12-7.66-20.27-14.04-28.07-8.61-10.52-16.44-21.61-21.42-33.67-5.44-13.18-10.37-27.29-9.39-43.24,8.15,14.29,23.16,14.23,35.77,18.67,10.81,3.81,13.53.89,10.81-10.12-1.69-6.85-3.96-12.76-.38-20.71,2.48-5.49-1.54-14.03-3-21.13-1.07-5.2-1.88-11.81,1.3-14.67,2.91-2.61,9.11.49,12.87,3.65,2.97,2.49,6.69,2.88,9.37,1.6,3.55-1.7.07-5.14-.03-7.81-.14-3.6-1.6-7.19-1.46-10.74.14-3.44,1.31-9.49,4.62-8.62,12.06,3.17,8.81-5.7,9.26-10.94.63-7.38,1.52-14.69,3.91-21.65.87-2.54,1.14-6.48,4.59-7.06,4.01-.68,5.89,3.31,7.08,5.84,3.51,7.47,7.52,14.8,8.45,23.34.56,5.18-.59,13.7,9.72,7.93,3.38-1.89,4.54,1.46,5.05,3.91.95,4.61,1.49,9.31,2.13,13.98.39,2.79-2.09,6.98,1.22,8.06,3.16,1.03,6.89-.82,9.85-3.42,2.91-2.56,5.38-6.8,10.32-5.22,6.01,1.92,2.47,7.76,4.26,11.53.99,2.09-.04,5.1-.06,7.69-.05,8.2-3.08,16.21,3.42,24.35,2.77,3.47.11,11.44-.42,17.33-.41,4.57.41,7.39,5.87,6.22,8.4-1.8,31.96-16.94,38.12-24.59,3.02,1.26,2.8,4.96,2.58,6.46-2.45,16.62-3.01,32.9-9.34,49.72-6,15.98-20.29,28.64-19.91,46.99.04,2.1-1.36,4.72,1,6.15,2.57,1.56,3.91-1.19,5.46-2.45,13.48-10.89,27.32-21.79,35.94-37.03,6.04-10.68,9.05-8.01,12.97.64.61,1.35,1.25,2.68,2.27,4.86,7.31-8.98,17.74-13.3,26.62-19.81,3.95-2.9,10.57-5.67,11.28,4.21.33,4.64,2.33,7.81,6.87,3.29,4.81-4.79,10.16-6.55,16.94-7.53,6.86-1,11.6-7.08,15.12-13.49.94-1.72,2.94-4.86,6.2-2.47,2.23,1.63,1.5,3.39.74,5.75-1.89,5.82-2.44,11.97-6.24,17.25-6.88,9.54-3.72,23.84-16.07,31.49-4.69,2.91,2.05,5.5,4.9,6.54,6.83,2.5,7.38,4.61,2.16,10.44-7.84,8.77-16.43,16.64-25.32,24.3,5.59,5.51,12.88,5.37,19.54,7.13-3.3,11.86-12.42,17.02-22.12,19.44-13.61,3.4-24.55,12.43-37.84,16-6.98,1.88-4.57,3.85-.73,6.55,6.8,4.79,13.35,9.98,20.37,14.43,7.71,4.89,3.48,7.92-1.38,10.54-2.47,1.33-5.57,1.73-8.43,2.03-11.98,1.25-23.33,7.29-35.85,4.52-3.38-.75-6.06-1.38-6.51,4.49-.28,3.63-6.67,3.03-10.59,3.66-12.44,2-24.68-.89-37-1.52-6.06-.31-11.69.65-17.31,2.19-5.06,1.39-7.71,4.16-8.44,10.42-4.23,36.44-2.06,72.65,3.37,108.68,1.18,7.85-1.42,9.91-7.66,11.13-9.12,1.78-6.3-6.28-6.44-9.39-1.23-27.07-1.67-54.17-2.41-81.26-.28-10.25-1.34-20.53,2.32-30.51,1.04-2.85-.23-3.79-3.42-4.93-12.45-4.46-24.55-1.93-36.74.48-5.72,1.13-11.32,3.17-17.08,3.71-7.25.68-16.29,9.31-21.22-4.63-.84-2.38-7.96,2.2-12.23,1.8-14.93-1.38-30.73,4.06-45.9-5.4,10.57-8.3,16.5-19.61,27.52-26.69-23.29-11.22-51.28-7.19-70.48-25.92,1.08-2.31,1.23-3.31,1.67-3.45,5.46-1.82,13.58-1.88,14.38-8.17.75-5.88-8.11-5.83-11.69-9.52-3.61-3.71-8.4-5.65-11.86-9.74-8.37-9.88-8.62-9.9,3.46-16.1Z"/>
  <path class="cls-3" d="M219.73,405.17c.25-11.03,3.17-21.21.77-31.55-.17-.72.82-1.71,1.28-2.57,6.37,3.82,9.63-.11,11.18-5.31,1.37-4.61,1.34-9.64,1.81-14.5.22-2.32-2.21-4.42-.46-7.15,3.24.58,6.58,5.19,9.35,2.97,3.21-2.57,1.96-7.44,1.22-11.5-.61-3.33-4.13-7.27,4.19-7.21,5.17.04,1.88-7.09,1.21-10.37-.74-3.66-6.29-6.36.96-9.97,1.59-.79-.24-8.25-.3-12.64-.02-1.61-.22-3.74,1.87-4.33,2-.57,3.19,1.22,3.92,2.57,2.1,3.82,3.71,11.1,5.78,11.19,9.85.46,6.57,8.56,9,13.15.98,1.85,2.36,4.79,4.07,3.48,7.97-6.1,7.18,1.03,9,5.24,3.47,8.02,6.85,7.67,15.09-3.94-1.61,14.5,11.83,14,16.11,22.21.94,1.8,2.57.67,7.06-6.28,3.85-.32,3,3.3,3.74,5.05,3.66,8.56,11.83,13.48,16.5,21.17,1.02,1.68,2.94,2.43,4.24.78,5.51-6.97,6.95-1.11,7.45,2.76,1.31,10.07,3.62,20.1,5.94,29.76,5.43,22.55-7.98,34.48-21.77,47.31-7.45,6.93-15.8,12.83-22.07,21.23-3.67,4.91-3.78,9.03-1.73,13.8,6.92,16.12,13.32,32.52,22.15,47.72,1.88,3.24,2.98,5.4-.7,7.45-4.73,2.64-3.78-2.32-4.83-4.06-9.11-15.07-17.06-30.88-22.01-47.66-2.84-9.63-9.13-11.18-16.63-13.51-10.89-3.37-22.26-2.88-33.33-4.21-21.35-2.57-33.03-14.6-39.92-33.51-2.07-5.68-5.35-10.92-7.27-16.64-2.08-6.19-5.28-13.99,7.13-10.93Z"/>
  <path class="cls-1" d="M233.94,392.43c.25-11.03,3.17-21.21.77-31.55-.17-.72.82-1.71,1.28-2.57,6.37,3.82,9.63-.11,11.18-5.31,1.37-4.61,1.34-9.64,1.81-14.5.22-2.32-2.21-4.42-.46-7.15,3.24.58,6.58,5.19,9.35,2.97,3.21-2.57,1.96-7.44,1.22-11.5-.61-3.33-4.13-7.27,4.19-7.21,5.17.04,1.88-7.09,1.21-10.37-.74-3.66-6.29-6.36.96-9.97,1.59-.79-.24-8.25-.3-12.64-.02-1.61-.22-3.74,1.87-4.33,2-.57,3.19,1.22,3.92,2.57,2.1,3.82,3.71,11.1,5.78,11.19,9.85.46,6.57,8.56,9,13.15.98,1.85,2.36,4.79,4.07,3.48,7.97-6.1,7.18,1.03,9,5.24,3.47,8.02,6.85,7.67,15.09-3.94-1.61,14.5,11.83,14,16.11,22.21.94,1.8,2.57.67,7.06-6.28,3.85-.32,3,3.3,3.74,5.05,3.66,8.56,11.83,13.48,16.5,21.17,1.02,1.68,2.94,2.43,4.24.78,5.51-6.97,6.95-1.11,7.45,2.76,1.31,10.07,3.62,20.1,5.94,29.76,5.43,22.55-7.98,34.48-21.77,47.31-7.45,6.93-15.8,12.83-22.07,21.23-3.67,4.91-3.78,9.03-1.73,13.8,6.92,16.12,13.32,32.52,22.15,47.72,1.88,3.24,2.98,5.4-.7,7.45-4.73,2.64-3.78-2.32-4.83-4.06-9.11-15.07-17.06-30.88-22.01-47.66-2.84-9.63-9.13-11.18-16.63-13.51-10.89-3.37-22.26-2.88-33.33-4.21-21.35-2.57-33.03-14.6-39.92-33.51-2.07-5.68-5.35-10.92-7.27-16.64-2.08-6.19-5.28-13.99,7.13-10.93Z"/>
</svg>